<svg width="23" height="23" viewBox="0 0 23 23" fill="none" xmlns="http://www.w3.org/2000/svg">
<g clip-path="url(#clip0_86_1176)">
<path d="M16.7707 6.22919H16.7803M6.70817 1.91669H16.2915C18.9379 1.91669 21.0832 4.06199 21.0832 6.70835V16.2917C21.0832 18.9381 18.9379 21.0834 16.2915 21.0834H6.70817C4.06181 21.0834 1.9165 18.9381 1.9165 16.2917V6.70835C1.9165 4.06199 4.06181 1.91669 6.70817 1.91669ZM15.3332 10.8963C15.4514 11.6938 15.3152 12.5084 14.9439 13.2241C14.5725 13.9398 13.9849 14.5201 13.2647 14.8826C12.5445 15.2451 11.7283 15.3713 10.9323 15.2432C10.1362 15.1151 9.40086 14.7393 8.83072 14.1691C8.26059 13.599 7.88475 12.8636 7.75665 12.0676C7.62856 11.2715 7.75473 10.4553 8.11723 9.73513C8.47973 9.01492 9.0601 8.42736 9.77578 8.056C10.4915 7.68465 11.306 7.54842 12.1036 7.66669C12.9171 7.78733 13.6703 8.16642 14.2519 8.74798C14.8334 9.32954 15.2125 10.0827 15.3332 10.8963Z" stroke="#1E1E1E" stroke-width="2" stroke-linecap="round" stroke-linejoin="round"/>
</g>
<defs>
<clipPath id="clip0_86_1176">
<rect width="23" height="23" fill="white"/>
</clipPath>
</defs>
</svg>
