<svg width="34" height="30" viewBox="0 0 34 30" fill="none" xmlns="http://www.w3.org/2000/svg">
<path d="M29.6331 3.85058C28.8883 3.10538 28.0039 2.51423 27.0305 2.11091C26.0571 1.70759 25.0138 1.5 23.9602 1.5C22.9066 1.5 21.8633 1.70759 20.8899 2.11091C19.9165 2.51423 19.0322 3.10538 18.2873 3.85058L16.7415 5.39641L15.1956 3.85058C13.6911 2.34603 11.6505 1.50078 9.52272 1.50078C7.39496 1.50078 5.35435 2.34603 3.8498 3.85058C2.34525 5.35513 1.5 7.39574 1.5 9.52349C1.5 11.6513 2.34525 13.6919 3.8498 15.1964L16.7415 28.0881L29.6331 15.1964C30.3783 14.4516 30.9695 13.5672 31.3728 12.5938C31.7761 11.6204 31.9837 10.5771 31.9837 9.52349C31.9837 8.46987 31.7761 7.42656 31.3728 6.45319C30.9695 5.47981 30.3783 4.59543 29.6331 3.85058Z" stroke="#1E1E1E" stroke-width="3" stroke-linecap="round" stroke-linejoin="round"/>
</svg>
