<svg width="23" height="23" viewBox="0 0 23 23" fill="none" xmlns="http://www.w3.org/2000/svg">
<g clip-path="url(#clip0_86_1156)">
<path d="M9.58328 12.4583C9.99484 13.0085 10.5199 13.4638 11.1229 13.7932C11.7259 14.1227 12.3926 14.3186 13.078 14.3677C13.7633 14.4167 14.4512 14.3179 15.095 14.0777C15.7388 13.8376 16.3233 13.4618 16.8091 12.9758L19.6841 10.1008C20.557 9.19712 21.0399 7.98674 21.029 6.73038C21.0181 5.47402 20.5142 4.27221 19.6257 3.38379C18.7373 2.49538 17.5355 1.99145 16.2792 1.98053C15.0228 1.96961 13.8124 2.45258 12.9087 3.32542L11.2604 4.96417M13.4166 10.5417C13.0051 9.99147 12.48 9.53621 11.877 9.20677C11.274 8.87734 10.6073 8.68144 9.92191 8.63235C9.23656 8.58327 8.54868 8.68216 7.90491 8.9223C7.26114 9.16244 6.67655 9.53823 6.19078 10.0242L3.31578 12.8992C2.44294 13.8029 1.95997 15.0133 1.97088 16.2696C1.9818 17.526 2.48574 18.7278 3.37415 19.6162C4.26256 20.5046 5.46437 21.0086 6.72073 21.0195C7.97709 21.0304 9.18748 20.5474 10.0912 19.6746L11.7299 18.0358" stroke="#1E1E1E" stroke-width="2" stroke-linecap="round" stroke-linejoin="round"/>
</g>
<defs>
<clipPath id="clip0_86_1156">
<rect width="23" height="23" fill="white"/>
</clipPath>
</defs>
</svg>
