<svg width="85" height="39" viewBox="0 0 85 39" fill="none" xmlns="http://www.w3.org/2000/svg">
<path d="M6.156 11.592C6.756 10.656 7.584 9.9 8.64 9.324C9.696 8.748 10.932 8.46 12.348 8.46C14.004 8.46 15.504 8.88 16.848 9.72C18.192 10.56 19.248 11.76 20.016 13.32C20.808 14.88 21.204 16.692 21.204 18.756C21.204 20.82 20.808 22.644 20.016 24.228C19.248 25.788 18.192 27 16.848 27.864C15.504 28.704 14.004 29.124 12.348 29.124C10.956 29.124 9.72 28.836 8.64 28.26C7.584 27.684 6.756 26.94 6.156 26.028V38.412H0V8.748H6.156V11.592ZM14.94 18.756C14.94 17.22 14.508 16.02 13.644 15.156C12.804 14.268 11.76 13.824 10.512 13.824C9.288 13.824 8.244 14.268 7.38 15.156C6.54 16.044 6.12 17.256 6.12 18.792C6.12 20.328 6.54 21.54 7.38 22.428C8.244 23.316 9.288 23.76 10.512 23.76C11.736 23.76 12.78 23.316 13.644 22.428C14.508 21.516 14.94 20.292 14.94 18.756Z" fill="#FFFAFA"/>
<path d="M27.5296 6.66C26.4496 6.66 25.5616 6.348 24.8656 5.724C24.1936 5.076 23.8576 4.284 23.8576 3.348C23.8576 2.388 24.1936 1.596 24.8656 0.972C25.5616 0.324 26.4496 0 27.5296 0C28.5856 0 29.4496 0.324 30.1216 0.972C30.8176 1.596 31.1656 2.388 31.1656 3.348C31.1656 4.284 30.8176 5.076 30.1216 5.724C29.4496 6.348 28.5856 6.66 27.5296 6.66ZM30.5896 8.748V28.836H24.4336V8.748H30.5896Z" fill="#FFFAFA"/>
<path d="M46.9308 28.836L43.0788 23.256L39.8388 28.836H33.1788L39.8028 18.576L32.9988 8.748H39.9108L43.7628 14.292L47.0028 8.748H53.6628L46.9308 18.864L53.8428 28.836H46.9308Z" fill="#FFFAFA"/>
<path d="M75.1508 18.468C75.1508 19.044 75.1148 19.644 75.0428 20.268H61.1108C61.2068 21.516 61.6028 22.476 62.2988 23.148C63.0188 23.796 63.8948 24.12 64.9268 24.12C66.4628 24.12 67.5308 23.472 68.1308 22.176H74.6828C74.3468 23.496 73.7348 24.684 72.8468 25.74C71.9828 26.796 70.8908 27.624 69.5708 28.224C68.2508 28.824 66.7748 29.124 65.1428 29.124C63.1748 29.124 61.4228 28.704 59.8868 27.864C58.3508 27.024 57.1508 25.824 56.2868 24.264C55.4228 22.704 54.9908 20.88 54.9908 18.792C54.9908 16.704 55.4108 14.88 56.2508 13.32C57.1148 11.76 58.3148 10.56 59.8508 9.72C61.3868 8.88 63.1508 8.46 65.1428 8.46C67.0868 8.46 68.8148 8.868 70.3268 9.684C71.8388 10.5 73.0148 11.664 73.8548 13.176C74.7188 14.688 75.1508 16.452 75.1508 18.468ZM68.8508 16.848C68.8508 15.792 68.4908 14.952 67.7708 14.328C67.0508 13.704 66.1508 13.392 65.0708 13.392C64.0388 13.392 63.1628 13.692 62.4428 14.292C61.7468 14.892 61.3148 15.744 61.1468 16.848H68.8508Z" fill="#FFFAFA"/>
<path d="M84.5544 2.196V28.836H78.3984V2.196H84.5544Z" fill="#FFFAFA"/>
</svg>
