<svg width="83" height="30" viewBox="0 0 83 30" fill="none" xmlns="http://www.w3.org/2000/svg">
<path d="M19.2601 11.7C19.2601 13.164 18.9241 14.508 18.2521 15.732C17.5801 16.932 16.5481 17.904 15.1561 18.648C13.7641 19.392 12.0361 19.764 9.97207 19.764H6.15607V28.836H6.65039e-05V3.564H9.97207C11.9881 3.564 13.6921 3.912 15.0841 4.608C16.4761 5.304 17.5201 6.264 18.2161 7.488C18.9121 8.712 19.2601 10.116 19.2601 11.7ZM9.50407 14.868C10.6801 14.868 11.5561 14.592 12.1321 14.04C12.7081 13.488 12.9961 12.708 12.9961 11.7C12.9961 10.692 12.7081 9.912 12.1321 9.36C11.5561 8.808 10.6801 8.532 9.50407 8.532H6.15607V14.868H9.50407ZM25.5609 6.66C24.4809 6.66 23.5929 6.348 22.8969 5.724C22.2249 5.076 21.8889 4.284 21.8889 3.348C21.8889 2.388 22.2249 1.596 22.8969 0.971997C23.5929 0.323997 24.4809 -3.57628e-06 25.5609 -3.57628e-06C26.6169 -3.57628e-06 27.4809 0.323997 28.1529 0.971997C28.8489 1.596 29.1969 2.388 29.1969 3.348C29.1969 4.284 28.8489 5.076 28.1529 5.724C27.4809 6.348 26.6169 6.66 25.5609 6.66ZM28.6209 8.748V28.836H22.4649V8.748H28.6209ZM44.9621 28.836L41.1101 23.256L37.8701 28.836H31.2101L37.8341 18.576L31.0301 8.748H37.9421L41.7941 14.292L45.0341 8.748H51.6941L44.9621 18.864L51.8741 28.836H44.9621ZM73.1822 18.468C73.1822 19.044 73.1462 19.644 73.0742 20.268H59.1422C59.2382 21.516 59.6342 22.476 60.3302 23.148C61.0502 23.796 61.9262 24.12 62.9582 24.12C64.4942 24.12 65.5622 23.472 66.1622 22.176H72.7142C72.3782 23.496 71.7662 24.684 70.8782 25.74C70.0142 26.796 68.9222 27.624 67.6022 28.224C66.2822 28.824 64.8062 29.124 63.1742 29.124C61.2062 29.124 59.4542 28.704 57.9182 27.864C56.3822 27.024 55.1822 25.824 54.3182 24.264C53.4542 22.704 53.0222 20.88 53.0222 18.792C53.0222 16.704 53.4422 14.88 54.2822 13.32C55.1462 11.76 56.3462 10.56 57.8822 9.72C59.4182 8.88 61.1822 8.46 63.1742 8.46C65.1182 8.46 66.8462 8.868 68.3582 9.684C69.8702 10.5 71.0462 11.664 71.8862 13.176C72.7502 14.688 73.1822 16.452 73.1822 18.468ZM66.8822 16.848C66.8822 15.792 66.5222 14.952 65.8022 14.328C65.0822 13.704 64.1822 13.392 63.1022 13.392C62.0702 13.392 61.1942 13.692 60.4742 14.292C59.7782 14.892 59.3462 15.744 59.1782 16.848H66.8822ZM82.5858 2.196V28.836H76.4298V2.196H82.5858Z" fill="#1E1E1E"/>
</svg>
